<?xml version="1.0" standalone="no"?>
<!DOCTYPE svg PUBLIC "-//W3C//DTD SVG 20010904//EN"
 "http://www.w3.org/TR/2001/REC-SVG-20010904/DTD/svg10.dtd">
<svg version="1.0" xmlns="http://www.w3.org/2000/svg"
 width="72.000000pt" height="61.000000pt" viewBox="0 0 72.000000 61.000000"
 preserveAspectRatio="xMidYMid meet">

<g transform="translate(0.000000,61.000000) scale(0.100000,-0.100000)"
fill="#000000" stroke="none">
<path d="M174 577 c-2 -7 -3 -69 -2 -138 l3 -124 78 -3 c74 -3 77 -4 77 -27 0
-13 -6 -26 -12 -28 -7 -3 16 -5 52 -5 36 0 59 2 53 5 -7 2 -13 16 -13 29 0 23
3 24 68 24 40 0 73 5 80 12 13 13 18 222 6 252 -5 14 -32 16 -195 16 -147 0
-191 -3 -195 -13z m381 -127 l0 -125 -187 -3 -188 -2 0 130 0 130 188 -2 187
-3 0 -125z m-155 -165 c0 -21 -5 -25 -30 -25 -25 0 -30 4 -30 25 0 21 5 25 30
25 25 0 30 -4 30 -25z"/>
<path d="M366 454 c-15 -36 -25 -68 -23 -70 2 -2 16 26 30 63 15 37 25 68 23
70 -2 2 -16 -26 -30 -63z"/>
<path d="M258 476 c-21 -11 -38 -23 -38 -26 0 -7 82 -51 87 -47 2 2 -13 12
-32 23 -19 10 -35 21 -35 24 0 3 17 15 38 27 20 12 33 22 27 21 -5 0 -27 -10
-47 -22z"/>
<path d="M462 478 c21 -13 38 -25 38 -28 0 -3 -16 -14 -35 -24 -19 -11 -34
-21 -32 -23 5 -4 87 40 87 48 0 3 -17 14 -37 24 -55 28 -63 29 -21 3z"/>
<path d="M38 95 l4 -65 34 0 c42 0 74 30 74 68 0 39 -28 62 -76 62 l-39 0 3
-65z m92 36 c24 -45 -2 -91 -52 -91 -27 0 -28 1 -28 55 l0 55 35 0 c24 0 37
-6 45 -19z"/>
<path d="M570 93 l4 -68 6 58 5 58 39 -50 c21 -28 42 -53 46 -56 5 -3 10 24
12 60 2 39 -1 65 -7 65 -6 0 -9 -22 -7 -52 l3 -53 -40 45 c-22 25 -41 48 -41
53 0 4 -6 7 -12 7 -10 0 -12 -18 -8 -67z"/>
<path d="M389 130 c-2 -14 -2 -41 1 -60 4 -29 10 -35 30 -37 22 -1 22 -1 3 4
-17 3 -23 11 -23 33 0 22 5 30 23 33 22 4 22 4 0 6 -14 1 -23 9 -25 24 -3 21
-4 21 -9 -3z"/>
<path d="M211 110 c-8 -4 -19 -6 -25 -4 -8 3 -10 -9 -7 -38 5 -40 6 -41 9 -11
2 20 11 37 23 43 21 12 25 7 32 -45 4 -27 4 -26 6 8 0 20 6 37 11 37 6 0 13 0
18 0 4 1 9 -14 12 -31 3 -18 11 -34 18 -35 7 -1 8 0 2 3 -5 2 -10 20 -10 38 0
34 -17 49 -41 35 -7 -5 -18 -5 -24 0 -6 5 -17 5 -24 0z"/>
<path d="M338 70 c2 -22 6 -40 8 -40 2 0 4 18 4 40 0 22 -3 40 -8 40 -4 0 -6
-18 -4 -40z"/>
<path d="M465 100 c-3 -5 -1 -10 4 -10 6 0 11 5 11 10 0 6 -2 10 -4 10 -3 0
-8 -4 -11 -10z"/>
<path d="M516 96 c3 -9 -5 -15 -26 -20 -23 -4 -31 -11 -28 -23 2 -14 14 -18
48 -19 25 0 39 1 33 3 -7 3 -13 20 -13 39 0 19 -4 34 -10 34 -5 0 -7 -6 -4
-14z m2 -38 c-5 -15 -48 -24 -48 -10 0 14 12 22 33 22 10 0 17 -5 15 -12z"/>
</g>
</svg>
